<svg width="20" height="16" viewBox="0 0 20 16" fill="none" xmlns="http://www.w3.org/2000/svg">
<path d="M6.26603 15.1672L0.350598 9.25543C0.126098 9.03057 0 8.72581 0 8.40806C0 8.09031 0.126098 7.78555 0.350598 7.56069L1.06927 6.8411C1.29413 6.6166 1.59889 6.49051 1.91663 6.49051C2.23438 6.49051 2.53915 6.6166 2.76401 6.8411L7.06404 11.1384L17.1909 0.376751C17.4088 0.145542 17.7096 0.0102442 18.0272 0.000558123C18.3447 -0.00912797 18.6532 0.107589 18.8848 0.325088L19.6228 1.02162C19.8543 1.23956 19.9898 1.5405 19.9994 1.85829C20.0091 2.17608 19.8922 2.48471 19.6745 2.71635L7.98937 15.1404C7.87935 15.2577 7.74687 15.3516 7.59981 15.4166C7.45276 15.4817 7.29414 15.5165 7.13337 15.519C6.9726 15.5215 6.81296 15.4916 6.66396 15.4312C6.51496 15.3707 6.37963 15.281 6.26603 15.1672Z" fill="#43E804"/>
</svg>
