<svg width="21" height="22" viewBox="0 0 21 22" fill="none" xmlns="http://www.w3.org/2000/svg">
<path d="M8.42116 19.7501C8.60646 20.0541 8.87297 20.3066 9.19389 20.4821C9.51482 20.6576 9.87886 20.75 10.2494 20.75C10.62 20.75 10.984 20.6576 11.305 20.4821C11.6259 20.3066 11.8924 20.0541 12.0777 19.7501M1.02579 14.0761C0.887894 14.2192 0.796892 14.3973 0.763854 14.5886C0.730816 14.7799 0.757166 14.9761 0.839699 15.1535C0.922231 15.3308 1.05739 15.4816 1.22873 15.5875C1.40007 15.6935 1.60021 15.7499 1.80481 15.7501H18.694C18.8986 15.7501 19.0988 15.6939 19.2702 15.5882C19.4417 15.4825 19.577 15.3318 19.6598 15.1546C19.7425 14.9773 19.7691 14.7811 19.7364 14.5899C19.7036 14.3986 19.6128 14.2204 19.4752 14.0771C18.0713 12.7061 16.5829 11.249 16.5829 6.75003C16.5829 5.15872 15.9156 3.63259 14.7279 2.50737C13.5401 1.38214 11.9292 0.75 10.2494 0.75C8.56969 0.75 6.95875 1.38214 5.77099 2.50737C4.58324 3.63259 3.91596 5.15872 3.91596 6.75003C3.91596 11.249 2.42654 12.7061 1.02579 14.0761Z" stroke="white" stroke-width="1.5" stroke-linecap="round" stroke-linejoin="round"/>
</svg>
