<svg width="25" height="25" viewBox="0 0 25 25" fill="none" xmlns="http://www.w3.org/2000/svg">
<g clip-path="url(#clip0_0_1530)">
<path d="M14.8335 18.7374V17.5663C14.8335 16.1513 16.3725 14.8128 17.3709 13.8579C18.7781 12.5126 19.5178 10.7052 19.5178 8.58803C19.5178 4.68443 16.4081 1.56155 12.4914 1.56155C11.5679 1.55897 10.653 1.73896 9.79939 2.09116C8.94574 2.44336 8.17012 2.96083 7.51714 3.61382C6.86415 4.2668 6.34669 5.04241 5.99448 5.89607C5.64228 6.74972 5.4623 7.66458 5.46487 8.58803C5.46487 10.6296 6.23632 12.5595 7.61185 13.8579C8.60483 14.7952 10.1492 16.1366 10.1492 17.5663V18.7374M10.9299 23.4217H14.0528M10.1492 21.0796H14.8335M12.4914 18.7374V12.4916" stroke="#A1A1A9" stroke-width="1.70339" stroke-linecap="round" stroke-linejoin="round"/>
<path d="M14.3461 11.7107C14.3461 11.7107 13.2965 12.4914 12.4919 12.4914C11.6873 12.4914 10.6377 11.7107 10.6377 11.7107" stroke="#A1A1A9" stroke-width="1.56144" stroke-linecap="round" stroke-linejoin="round"/>
</g>
<defs>
<clipPath id="clip0_0_1530">
<rect width="24.9831" height="24.9831" fill="white"/>
</clipPath>
</defs>
</svg>
