<svg width="16" height="16" viewBox="0 0 16 16" fill="none" xmlns="http://www.w3.org/2000/svg">
<g clip-path="url(#clip0_0_1303)">
<path d="M14.9991 3.49954C14.9991 3.82781 14.8181 4.15285 14.4663 4.45613C14.1146 4.7594 13.5991 5.03496 12.9491 5.26708C12.2992 5.49919 11.5276 5.68332 10.6785 5.80894C9.8293 5.93456 8.91917 5.99921 8.00004 5.99921C6.14378 5.99921 4.36354 5.73585 3.05096 5.26708C1.73838 4.7983 1.00098 4.1625 1.00098 3.49954C1.00098 3.17128 1.18201 2.84624 1.53375 2.54296C1.88548 2.23969 2.40103 1.96413 3.05096 1.73201C3.70088 1.4999 4.47245 1.31577 5.32162 1.19015C6.17078 1.06453 7.08091 0.999878 8.00004 0.999878C8.91917 0.999878 9.8293 1.06453 10.6785 1.19015C11.5276 1.31577 12.2992 1.4999 12.9491 1.73201C13.5991 1.96413 14.1146 2.23969 14.4663 2.54296C14.8181 2.84624 14.9991 3.17128 14.9991 3.49954Z" stroke="white" stroke-linecap="round" stroke-linejoin="round"/>
<path d="M14.9991 12.4983C14.9991 12.9371 14.6757 13.3681 14.0614 13.7481C13.4471 14.1281 12.5636 14.4437 11.4996 14.6631C10.4356 14.8825 9.22864 14.998 8.00004 14.998C6.77145 14.998 5.5645 14.8825 4.50051 14.6631C3.43652 14.4437 2.55297 14.1281 1.93867 13.7481C1.32438 13.3681 1.00098 12.9371 1.00098 12.4983" stroke="white" stroke-linecap="round" stroke-linejoin="round"/>
<path d="M14.9991 9.49878C14.9991 9.93756 14.6757 10.3686 14.0614 10.7486C13.4471 11.1286 12.5636 11.4442 11.4996 11.6636C10.4356 11.8829 9.22864 11.9984 8.00004 11.9984C6.77145 11.9984 5.5645 11.8829 4.50051 11.6636C3.43652 11.4442 2.55297 11.1286 1.93867 10.7486C1.32438 10.3686 1.00098 9.93756 1.00098 9.49878" stroke="white" stroke-linecap="round" stroke-linejoin="round"/>
<path d="M14.9991 6.49915C14.9991 6.93793 14.6757 7.36898 14.0614 7.74898C13.4471 8.12898 12.5636 8.44453 11.4996 8.66392C10.4356 8.88331 9.22864 8.99881 8.00004 8.99881C6.77145 8.99881 5.5645 8.88331 4.50051 8.66392C3.43652 8.44453 2.55297 8.12898 1.93867 7.74898C1.32438 7.36898 1.00098 6.93793 1.00098 6.49915" stroke="white" stroke-linecap="round" stroke-linejoin="round"/>
<path d="M1.00098 3.49951V12.4983" stroke="white" stroke-linecap="round" stroke-linejoin="round"/>
<path d="M14.999 3.49951V12.4983" stroke="white" stroke-linecap="round" stroke-linejoin="round"/>
</g>
<defs>
<clipPath id="clip0_0_1303">
<rect width="16" height="16" fill="white"/>
</clipPath>
</defs>
</svg>
