<svg width="42" height="42" viewBox="0 0 42 42" fill="none" xmlns="http://www.w3.org/2000/svg">
<path d="M10.499 38.4999V6.99988C10.499 6.07162 10.8678 5.18138 11.5241 4.525C12.1805 3.86863 13.0708 3.49988 13.999 3.49988H27.999C28.9273 3.49988 29.8175 3.86863 30.4739 4.525C31.1303 5.18138 31.499 6.07162 31.499 6.99988V38.4999H10.499Z" stroke="#6B26D9" stroke-width="1.5" stroke-linecap="round" stroke-linejoin="round"/>
<path d="M10.4995 21H6.99951C6.07125 21 5.18102 21.3687 4.52464 22.0251C3.86826 22.6815 3.49951 23.5717 3.49951 24.5V35C3.49951 35.9283 3.86826 36.8185 4.52464 37.4749C5.18102 38.1313 6.07125 38.5 6.99951 38.5H10.4995" stroke="#6B26D9" stroke-width="1.5" stroke-linecap="round" stroke-linejoin="round"/>
<path d="M31.5 15.75H35C35.9283 15.75 36.8185 16.1187 37.4749 16.7751C38.1313 17.4315 38.5 18.3217 38.5 19.25V35C38.5 35.9283 38.1313 36.8185 37.4749 37.4749C36.8185 38.1313 35.9283 38.5 35 38.5H31.5" stroke="#6B26D9" stroke-width="1.5" stroke-linecap="round" stroke-linejoin="round"/>
<path d="M17.4985 10.5H24.4985" stroke="#6B26D9" stroke-width="1.5" stroke-linecap="round" stroke-linejoin="round"/>
<path d="M17.4985 17.5H24.4985" stroke="#6B26D9" stroke-width="3.94" stroke-linecap="round" stroke-linejoin="round"/>
<path d="M17.4985 24.5H24.4985" stroke="#6B26D9" stroke-width="1.5" stroke-linecap="round" stroke-linejoin="round"/>
<path d="M17.4985 31.5H24.4985" stroke="#6B26D9" stroke-width="1.5" stroke-linecap="round" stroke-linejoin="round"/>
</svg>
