<svg width="24" height="24" viewBox="0 0 24 24" fill="none" xmlns="http://www.w3.org/2000/svg">
<path d="M17.8097 4.47C17.7297 4.47 17.6497 4.45 17.5797 4.41C15.6597 3.42 13.9997 3 12.0097 3C10.0297 3 8.14975 3.47 6.43975 4.41C6.19975 4.54 5.89975 4.45 5.75975 4.21C5.69738 4.09305 5.68339 3.95629 5.72079 3.82913C5.75819 3.70197 5.84399 3.59457 5.95975 3.53C7.81975 2.52 9.85975 2 12.0097 2C14.1397 2 15.9997 2.47 18.0397 3.52C18.2897 3.65 18.3797 3.95 18.2497 4.19C18.2102 4.27336 18.1479 4.34387 18.0701 4.3934C17.9923 4.44294 17.902 4.46949 17.8097 4.47ZM3.49975 9.72C3.40757 9.72086 3.31695 9.69617 3.23795 9.64866C3.15895 9.60116 3.09465 9.5327 3.05219 9.45088C3.00973 9.36906 2.99076 9.27708 2.99739 9.18514C3.00402 9.09319 3.03598 9.00488 3.08975 8.93C4.07975 7.53 5.33975 6.43 6.83975 5.66C9.97975 4.04 13.9997 4.03 17.1497 5.65C18.6497 6.42 19.9097 7.51 20.8997 8.9C20.9381 8.95374 20.9655 9.01455 20.9802 9.07891C20.9949 9.14328 20.9968 9.20993 20.9856 9.27501C20.9745 9.34009 20.9505 9.40232 20.9152 9.4581C20.8799 9.51388 20.8338 9.56211 20.7797 9.6C20.5497 9.76 20.2397 9.71 20.0797 9.48C19.2037 8.2407 18.0405 7.23196 16.6897 6.54C13.8197 5.07 10.1497 5.07 7.28975 6.55C5.92975 7.25 4.78975 8.25 3.88975 9.51C3.80975 9.65 3.65975 9.72 3.49975 9.72ZM9.74975 21.79C9.68417 21.7908 9.61915 21.7779 9.55887 21.752C9.4986 21.7262 9.44439 21.688 9.39974 21.64C8.52975 20.77 8.05975 20.21 7.38975 19C6.69975 17.77 6.33975 16.27 6.33975 14.66C6.33975 11.69 8.87975 9.27 11.9997 9.27C15.1197 9.27 17.6597 11.69 17.6597 14.66C17.6597 14.94 17.4397 15.16 17.1597 15.16C16.8797 15.16 16.6597 14.94 16.6597 14.66C16.6597 12.24 14.5697 10.27 11.9997 10.27C9.42975 10.27 7.33975 12.24 7.33975 14.66C7.33975 16.1 7.65975 17.43 8.26975 18.51C8.90975 19.66 9.34975 20.15 10.1197 20.93C10.3097 21.13 10.3097 21.44 10.1197 21.64C10.0097 21.74 9.87975 21.79 9.74975 21.79ZM16.9197 19.94C15.7297 19.94 14.6797 19.64 13.8197 19.05C12.3297 18.04 11.4397 16.4 11.4397 14.66C11.4397 14.38 11.6597 14.16 11.9397 14.16C12.2197 14.16 12.4397 14.38 12.4397 14.66C12.4397 16.07 13.1597 17.4 14.3797 18.22C15.0897 18.7 15.9197 18.93 16.9197 18.93C17.1597 18.93 17.5597 18.9 17.9597 18.83C18.2297 18.78 18.4897 18.96 18.5397 19.24C18.5897 19.51 18.4097 19.77 18.1297 19.82C17.5597 19.93 17.0597 19.94 16.9197 19.94ZM14.9097 22C14.8697 22 14.8197 21.99 14.7797 21.98C13.1897 21.54 12.1497 20.95 11.0597 19.88C10.3692 19.1979 9.82155 18.3849 9.44895 17.4886C9.07634 16.5923 8.88624 15.6307 8.88975 14.66C8.88975 13.04 10.2697 11.72 11.9697 11.72C13.6697 11.72 15.0497 13.04 15.0497 14.66C15.0497 15.73 15.9797 16.6 17.1297 16.6C18.2797 16.6 19.2097 15.73 19.2097 14.66C19.2097 10.89 15.9597 7.83 11.9597 7.83C9.11975 7.83 6.51975 9.41 5.34975 11.86C4.95975 12.67 4.75975 13.62 4.75975 14.66C4.75975 15.44 4.82975 16.67 5.42975 18.27C5.52975 18.53 5.39975 18.82 5.13975 18.91C4.87975 19.01 4.58975 18.87 4.49975 18.62C4.01702 17.3555 3.76961 16.0135 3.76975 14.66C3.76975 13.46 3.99975 12.37 4.44975 11.42C5.77975 8.63 8.72975 6.82 11.9597 6.82C16.5097 6.82 20.2097 10.33 20.2097 14.65C20.2097 16.27 18.8297 17.59 17.1297 17.59C15.4297 17.59 14.0497 16.27 14.0497 14.65C14.0497 13.58 13.1197 12.71 11.9697 12.71C10.8197 12.71 9.88975 13.58 9.88975 14.65C9.88975 16.36 10.5497 17.96 11.7597 19.16C12.7097 20.1 13.6197 20.62 15.0297 21.01C15.2997 21.08 15.4497 21.36 15.3797 21.62C15.3297 21.85 15.1197 22 14.9097 22Z" fill="#F0F0F0"/>
</svg>
