<svg width="18" height="20" viewBox="0 0 18 20" fill="none" xmlns="http://www.w3.org/2000/svg">
<path d="M1.78928 11.6135C1.62026 11.6141 1.45455 11.5667 1.31139 11.4768C1.16824 11.387 1.05352 11.2583 0.980561 11.1059C0.907604 10.9534 0.879404 10.7834 0.899238 10.6155C0.919072 10.4477 0.986126 10.2889 1.09261 10.1576L9.93495 1.04735C10.0013 0.970792 10.0917 0.919055 10.1913 0.900635C10.2909 0.882215 10.3938 0.898205 10.4831 0.945982C10.5724 0.993759 10.6429 1.07048 10.6828 1.16356C10.7228 1.25664 10.7299 1.36054 10.7031 1.45821L8.9882 6.83507C8.93763 6.97041 8.92065 7.11599 8.93871 7.25933C8.95677 7.40267 9.00933 7.53949 9.09189 7.65806C9.17444 7.77662 9.28453 7.87339 9.4127 7.94006C9.54087 8.00673 9.6833 8.04131 9.82777 8.04084H16.0799C16.249 8.04027 16.4147 8.08766 16.5578 8.17752C16.701 8.26737 16.8157 8.39601 16.8887 8.54847C16.9616 8.70093 16.9898 8.87096 16.97 9.03882C16.9501 9.20667 16.8831 9.36545 16.7766 9.4967L7.93426 18.607C7.86793 18.6836 7.77755 18.7353 7.67794 18.7537C7.57833 18.7721 7.47542 18.7561 7.3861 18.7084C7.29678 18.6606 7.22635 18.5839 7.18638 18.4908C7.14641 18.3977 7.13928 18.2938 7.16614 18.1961L8.88102 12.8193C8.93159 12.6839 8.94857 12.5384 8.93051 12.395C8.91245 12.2517 8.85989 12.1149 8.77733 11.9963C8.69478 11.8777 8.58469 11.781 8.45652 11.7143C8.32835 11.6476 8.18592 11.613 8.04144 11.6135H1.78928Z" stroke="white" stroke-width="1.78633" stroke-linecap="round" stroke-linejoin="round"/>
</svg>
