<svg width="24" height="24" viewBox="0 0 24 24" fill="none" xmlns="http://www.w3.org/2000/svg">
<path fill-rule="evenodd" clip-rule="evenodd" d="M10.51 6.61703C9.99201 7.95803 9.65501 9.86203 9.65501 12.002C9.65501 14.142 9.99201 16.046 10.511 17.387C10.771 18.06 11.063 18.553 11.349 18.865C11.635 19.177 11.855 19.25 12 19.25C12.145 19.25 12.366 19.177 12.652 18.865C12.937 18.553 13.229 18.06 13.489 17.387C14.009 16.046 14.345 14.142 14.345 12.002C14.345 9.86203 14.008 7.95803 13.489 6.61703C13.229 5.94403 12.937 5.45103 12.651 5.13903C12.365 4.82703 12.145 4.75403 12 4.75403C11.855 4.75403 11.634 4.82703 11.349 5.13903C11.064 5.45103 10.77 5.94403 10.51 6.61703ZM10.243 4.12703C10.698 3.62803 11.291 3.25403 12.001 3.25403C12.711 3.25403 13.304 3.62803 13.759 4.12603C14.214 4.62303 14.589 5.30103 14.889 6.07603C15.49 7.62903 15.846 9.72503 15.846 12.002C15.846 14.279 15.49 16.375 14.889 17.928C14.589 18.702 14.214 19.381 13.759 19.878C13.304 20.375 12.711 20.75 12.001 20.75C11.291 20.75 10.698 20.375 10.243 19.878C9.78801 19.381 9.41301 18.703 9.11301 17.928C8.51201 16.375 8.15601 14.279 8.15601 12.002C8.15601 9.72503 8.51201 7.62903 9.11301 6.07603C9.41301 5.30103 9.78801 4.62403 10.243 4.12703Z" fill="#9CA3AF"/>
<path fill-rule="evenodd" clip-rule="evenodd" d="M12 4.74597C11.0479 4.74597 10.1052 4.9335 9.22554 5.29785C8.34593 5.66219 7.5467 6.19622 6.87348 6.86945C6.20025 7.54267 5.66622 8.34191 5.30187 9.22152C4.93753 10.1011 4.75 11.0439 4.75 11.996C4.75 12.9481 4.93753 13.8908 5.30187 14.7704C5.66622 15.65 6.20025 16.4493 6.87348 17.1225C7.5467 17.7957 8.34593 18.3298 9.22554 18.6941C10.1052 19.0584 11.0479 19.246 12 19.246C13.9228 19.246 15.7669 18.4821 17.1265 17.1225C18.4862 15.7629 19.25 13.9188 19.25 11.996C19.25 10.0732 18.4862 8.22909 17.1265 6.86945C15.7669 5.50981 13.9228 4.74597 12 4.74597ZM3.25 11.996C3.25 9.67533 4.17187 7.44973 5.81282 5.80879C7.45376 4.16784 9.67936 3.24597 12 3.24597C14.3206 3.24597 16.5462 4.16784 18.1872 5.80879C19.8281 7.44973 20.75 9.67533 20.75 11.996C20.75 14.3166 19.8281 16.5422 18.1872 18.1832C16.5462 19.8241 14.3206 20.746 12 20.746C9.67936 20.746 7.45376 19.8241 5.81282 18.1832C4.17187 16.5422 3.25 14.3166 3.25 11.996Z" fill="#9CA3AF"/>
<path fill-rule="evenodd" clip-rule="evenodd" d="M3.25 11.99C3.25 11.7911 3.32902 11.6003 3.46967 11.4597C3.61032 11.319 3.80109 11.24 4 11.24L20 11.252C20.1989 11.252 20.3897 11.331 20.5303 11.4717C20.671 11.6123 20.75 11.8031 20.75 12.002C20.75 12.2009 20.671 12.3917 20.5303 12.5323C20.3897 12.673 20.1989 12.752 20 12.752L4 12.741C3.80109 12.741 3.61032 12.662 3.46967 12.5213C3.32902 12.3807 3.25 12.1899 3.25 11.991" fill="#9CA3AF"/>
</svg>
