<svg width="16" height="16" viewBox="0 0 16 16" fill="none" xmlns="http://www.w3.org/2000/svg">
<path d="M14.3439 7.06248L10.3789 5.62123L8.93766 1.65623C8.86662 1.46485 8.73872 1.2998 8.57113 1.18324C8.40354 1.06669 8.20429 1.00421 8.00016 1.00421C7.79602 1.00421 7.59678 1.06669 7.42919 1.18324C7.2616 1.2998 7.1337 1.46485 7.06266 1.65623L5.62141 5.62123L1.65641 7.06248C1.46503 7.13351 1.29998 7.26142 1.18342 7.42901C1.06687 7.59659 1.00439 7.79584 1.00439 7.99998C1.00439 8.20411 1.06687 8.40336 1.18342 8.57095C1.29998 8.73854 1.46503 8.86644 1.65641 8.93748L5.62141 10.3794L7.06266 14.3437C7.1337 14.5351 7.2616 14.7002 7.42919 14.8167C7.59678 14.9333 7.79602 14.9957 8.00016 14.9957C8.20429 14.9957 8.40354 14.9333 8.57113 14.8167C8.73872 14.7002 8.86662 14.5351 8.93766 14.3437L10.3795 10.3787L14.3439 8.93748C14.5353 8.86644 14.7003 8.73854 14.8169 8.57095C14.9334 8.40336 14.9959 8.20411 14.9959 7.99998C14.9959 7.79584 14.9334 7.59659 14.8169 7.42901C14.7003 7.26142 14.5353 7.13351 14.3439 7.06248ZM9.81766 9.51873C9.74907 9.5437 9.68679 9.58339 9.63518 9.635C9.58357 9.68661 9.54388 9.74889 9.51891 9.81748L8.00016 13.9937L6.48141 9.81748C6.45644 9.74889 6.41675 9.68661 6.36514 9.635C6.31353 9.58339 6.25124 9.5437 6.18266 9.51873L2.00641 7.99998L6.18266 6.48123C6.25124 6.45625 6.31353 6.41657 6.36514 6.36496C6.41675 6.31335 6.45644 6.25106 6.48141 6.18248L8.00016 2.00623L9.51891 6.18248C9.54388 6.25106 9.58357 6.31335 9.63518 6.36496C9.68679 6.41657 9.74907 6.45625 9.81766 6.48123L13.9939 7.99998L9.81766 9.51873Z" fill="white"/>
<g clip-path="url(#clip0_0_1869)">
<path d="M3.68964 13.3242L2.9462 13.054L2.67596 12.3105C2.66264 12.2747 2.63866 12.2437 2.60724 12.2219C2.57582 12.2 2.53846 12.1883 2.50018 12.1883C2.46191 12.1883 2.42455 12.2 2.39313 12.2219C2.3617 12.2437 2.33772 12.2747 2.3244 12.3105L2.05417 13.054L1.31073 13.3242C1.27485 13.3375 1.2439 13.3615 1.22204 13.3929C1.20019 13.4244 1.18848 13.4617 1.18848 13.5C1.18848 13.5383 1.20019 13.5756 1.22204 13.6071C1.2439 13.6385 1.27485 13.6625 1.31073 13.6758L2.05417 13.9461L2.3244 14.6895C2.33772 14.7253 2.3617 14.7563 2.39313 14.7781C2.42455 14.8 2.46191 14.8117 2.50018 14.8117C2.53846 14.8117 2.57582 14.8 2.60724 14.7781C2.63866 14.7563 2.66264 14.7253 2.67596 14.6895L2.94632 13.946L3.68964 13.6758C3.72552 13.6625 3.75647 13.6385 3.77832 13.6071C3.80017 13.5756 3.81189 13.5383 3.81189 13.5C3.81189 13.4617 3.80017 13.4244 3.77832 13.3929C3.75647 13.3615 3.72552 13.3375 3.68964 13.3242ZM2.84096 13.7848C2.8281 13.7894 2.81643 13.7969 2.80675 13.8066C2.79707 13.8162 2.78963 13.8279 2.78495 13.8408L2.50018 14.6238L2.21542 13.8408C2.21073 13.8279 2.20329 13.8162 2.19362 13.8066C2.18394 13.7969 2.17226 13.7894 2.1594 13.7848L1.37635 13.5L2.1594 13.2152C2.17226 13.2106 2.18394 13.2031 2.19362 13.1934C2.20329 13.1838 2.21073 13.1721 2.21542 13.1592L2.50018 12.3762L2.78495 13.1592C2.78963 13.1721 2.79707 13.1838 2.80675 13.1934C2.81643 13.2031 2.8281 13.2106 2.84096 13.2152L3.62401 13.5L2.84096 13.7848Z" fill="white"/>
</g>
<g clip-path="url(#clip1_0_1869)">
<path d="M13.6896 3.32422L12.9462 3.05398L12.676 2.31055C12.6626 2.27466 12.6387 2.24372 12.6072 2.22186C12.5758 2.20001 12.5385 2.18829 12.5002 2.18829C12.4619 2.18829 12.4245 2.20001 12.3931 2.22186C12.3617 2.24372 12.3377 2.27466 12.3244 2.31055L12.0542 3.05398L11.3107 3.32422C11.2748 3.33754 11.2439 3.36152 11.222 3.39294C11.2002 3.42437 11.1885 3.46172 11.1885 3.5C11.1885 3.53827 11.2002 3.57563 11.222 3.60706C11.2439 3.63848 11.2748 3.66246 11.3107 3.67578L12.0542 3.94613L12.3244 4.68945C12.3377 4.72534 12.3617 4.75628 12.3931 4.77814C12.4245 4.79999 12.4619 4.81171 12.5002 4.81171C12.5385 4.81171 12.5758 4.79999 12.6072 4.77814C12.6387 4.75628 12.6626 4.72534 12.676 4.68945L12.9463 3.94601L13.6896 3.67578C13.7255 3.66246 13.7565 3.63848 13.7783 3.60706C13.8002 3.57563 13.8119 3.53827 13.8119 3.5C13.8119 3.46172 13.8002 3.42437 13.7783 3.39294C13.7565 3.36152 13.7255 3.33754 13.6896 3.32422ZM12.841 3.78476C12.8281 3.78945 12.8164 3.79689 12.8067 3.80657C12.7971 3.81624 12.7896 3.82792 12.7849 3.84078L12.5002 4.62383L12.2154 3.84078C12.2107 3.82792 12.2033 3.81624 12.1936 3.80657C12.1839 3.79689 12.1723 3.78945 12.1594 3.78476L11.3764 3.5L12.1594 3.21523C12.1723 3.21055 12.1839 3.20311 12.1936 3.19343C12.2033 3.18376 12.2107 3.17208 12.2154 3.15922L12.5002 2.37617L12.7849 3.15922C12.7896 3.17208 12.7971 3.18376 12.8067 3.19343C12.8164 3.20311 12.8281 3.21055 12.841 3.21523L13.624 3.5L12.841 3.78476Z" fill="white"/>
</g>
<defs>
<clipPath id="clip0_0_1869">
<rect width="3" height="3" fill="white" transform="translate(1 12)"/>
</clipPath>
<clipPath id="clip1_0_1869">
<rect width="3" height="3" fill="white" transform="translate(11 2)"/>
</clipPath>
</defs>
</svg>
