<svg width="28" height="28" viewBox="0 0 28 28" fill="none" xmlns="http://www.w3.org/2000/svg">
<path d="M6.9647 23.8476C5.62697 23.8476 4.54248 22.7347 4.54248 21.3607V11.3652C4.54248 10.61 4.87748 9.89457 5.45096 9.4233L12.1135 3.95201C12.5392 3.59951 13.0745 3.40662 13.6272 3.40662C14.1799 3.40662 14.7153 3.59951 15.141 3.95201L21.8024 9.4233C22.377 9.89457 22.712 10.61 22.712 11.3652V21.3607C22.712 22.7347 21.6275 23.8476 20.2898 23.8476H6.9647Z" stroke="#6123C5" stroke-width="1.70339" stroke-linecap="round" stroke-linejoin="round"/>
<path d="M10.7881 23.8475V17.6018C10.7881 16.9994 11.0274 16.4217 11.4533 15.9958C11.8792 15.5699 12.4569 15.3306 13.0593 15.3306H14.1949C14.7972 15.3306 15.3749 15.5699 15.8008 15.9958C16.2268 16.4217 16.4661 16.9994 16.4661 17.6018V23.8475" stroke="#6123C5" stroke-width="1.70339" stroke-linecap="round" stroke-linejoin="round"/>
</svg>
