<svg width="28" height="28" viewBox="0 0 28 28" fill="none" xmlns="http://www.w3.org/2000/svg">
<g clip-path="url(#clip0_2_23602)">
<path d="M17.8887 3.11133H5.44423C5.03167 3.11133 4.63601 3.27522 4.34428 3.56694C4.05256 3.85866 3.88867 4.25432 3.88867 4.66688V23.3336C3.88867 23.7461 4.05256 24.1418 4.34428 24.4335C4.63601 24.7252 5.03167 24.8891 5.44423 24.8891H17.8887C18.3012 24.8891 18.6969 24.7252 18.9886 24.4335C19.2803 24.1418 19.4442 23.7461 19.4442 23.3336V18.6669H12.1565C11.9502 18.6669 11.7523 18.5849 11.6065 18.4391C11.4606 18.2932 11.3787 18.0954 11.3787 17.8891C11.3787 17.6828 11.4606 17.485 11.6065 17.3391C11.7523 17.1933 11.9502 17.1113 12.1565 17.1113H19.4442V4.66688C19.4442 4.25432 19.2803 3.85866 18.9886 3.56694C18.6969 3.27522 18.3012 3.11133 17.8887 3.11133Z" fill="white"/>
<path d="M21.9031 13.44C21.7543 13.3125 21.5629 13.2459 21.3672 13.2535C21.1714 13.2611 20.9857 13.3422 20.8472 13.4807C20.7087 13.6193 20.6275 13.8049 20.62 14.0007C20.6124 14.1964 20.679 14.3878 20.8064 14.5366L23.4353 17.1111H19.4453V18.6666H23.4353L20.8064 21.3577C20.725 21.4275 20.6589 21.5133 20.6122 21.6098C20.5655 21.7062 20.5393 21.8113 20.5351 21.9185C20.531 22.0256 20.549 22.1324 20.5881 22.2322C20.6273 22.332 20.6866 22.4227 20.7624 22.4985C20.8382 22.5743 20.9288 22.6336 21.0286 22.6727C21.1284 22.7118 21.2352 22.7298 21.3424 22.7257C21.4495 22.7215 21.5546 22.6953 21.6511 22.6486C21.7476 22.6019 21.8334 22.5358 21.9031 22.4544L26.4453 17.9433L21.9031 13.44Z" fill="white"/>
</g>
<defs>
<clipPath id="clip0_2_23602">
<rect width="28" height="28" fill="white"/>
</clipPath>
</defs>
</svg>
