<svg width="21" height="21" viewBox="0 0 21 21" fill="none" xmlns="http://www.w3.org/2000/svg">
<path d="M18.0583 12.369L17.9716 11.4984L17.9428 11.501L17.9148 11.5063L18.0583 12.369ZM18.0583 12.369L18.1458 13.2396L18.1746 13.237L18.2026 13.2326L18.0583 12.369ZM14.5233 17.1658L15.0771 16.4885L15.0701 16.4833L14.5233 17.1658ZM14.5233 17.1658L13.9694 17.843L13.9764 17.8491L14.5233 17.1658ZM6.47677 17.1658L5.92289 16.4894L5.90889 16.5008L5.89577 16.5121L6.47677 17.1658ZM6.47677 17.1658L7.03064 17.8439L7.04464 17.8325L7.05777 17.8203L6.47677 17.1658ZM2.94089 8.63102V7.75602H2.89714L2.85427 7.76039L2.94089 8.63102ZM2.94089 8.63102V9.50602H2.98464L3.02839 9.50164L2.94089 8.63102ZM13.2396 2.85339C13.2252 2.68509 13.2045 2.51729 13.1793 2.35027C13.1523 2.16639 13.0961 1.98799 13.013 1.82177L11.4581 2.62502C11.438 2.58564 11.4424 2.57164 11.4538 2.64077C11.4669 2.71864 11.4783 2.82714 11.4984 3.02839L13.2396 2.85339ZM13.3228 3.68464C13.3779 3.75639 13.3595 3.78877 13.3289 3.61814C13.3 3.45539 13.2773 3.22702 13.2396 2.85339L11.4975 3.02752C11.5325 3.37227 11.5623 3.68202 11.6069 3.92877C11.6498 4.16502 11.725 4.47564 11.9306 4.74514L13.3228 3.68464ZM13.3228 3.68464L11.9306 4.74514C12.1179 4.99088 12.3669 5.18267 12.6523 5.30101C12.9377 5.41935 13.2493 5.46002 13.5555 5.41889L13.3228 3.68464ZM13.9685 3.15527C13.7724 3.321 13.5708 3.48005 13.3639 3.63214C13.2213 3.73102 13.2326 3.69602 13.3228 3.68464L13.5555 5.41889C13.8915 5.37339 14.1645 5.20714 14.3623 5.06889C14.5679 4.92714 14.8085 4.72939 15.0763 4.50977L13.9685 3.15527ZM14.8575 2.58652C14.6814 2.64511 14.5157 2.73136 14.3666 2.84202C14.2441 2.92952 14.1068 3.04239 13.9685 3.15527L15.0763 4.50977C15.2329 4.38202 15.3178 4.31289 15.3825 4.26739C15.4394 4.22627 15.4315 4.24027 15.3904 4.25339L14.8575 2.58652ZM16.086 2.64777C15.6974 2.47937 15.2609 2.45761 14.8575 2.58652L15.3904 4.25339L16.086 2.64777ZM16.9138 3.30227C16.7959 3.18113 16.6743 3.06382 16.5489 2.95052C16.4114 2.82563 16.2548 2.72343 16.0851 2.64777L15.3904 4.25339C15.3501 4.23589 15.344 4.22189 15.3965 4.26827C15.456 4.32077 15.5339 4.39689 15.6765 4.53952L16.9138 3.30227ZM17.696 4.08452L16.9138 3.30227L15.6765 4.53952L16.4588 5.32177L17.696 4.08452ZM18.3505 4.91227C18.2749 4.74259 18.1727 4.58605 18.0478 4.44852C17.9344 4.32345 17.8171 4.20205 17.696 4.08452L16.4588 5.32264C16.6014 5.46527 16.6775 5.54314 16.73 5.60264C16.7764 5.65514 16.7624 5.64902 16.7449 5.60877L18.3505 4.91227ZM18.4118 6.14077C18.5407 5.73735 18.5189 5.30087 18.3505 4.91227L16.7449 5.60877L18.4118 6.14077ZM17.843 7.02977C17.9517 6.90045 18.0561 6.76768 18.1563 6.63164C18.249 6.50214 18.3488 6.34114 18.4118 6.14077L16.7449 5.60877C16.758 5.56764 16.7711 5.55889 16.7309 5.61664C16.6854 5.68052 16.6171 5.76539 16.4885 5.92202L17.843 7.02977ZM17.3136 7.67639C17.3023 7.76652 17.2673 7.77702 17.3661 7.63439C17.4598 7.49877 17.605 7.32027 17.843 7.02977L16.4885 5.92202C16.2698 6.18977 16.0711 6.43039 15.9285 6.63602C15.7911 6.83377 15.6249 7.10677 15.5794 7.44277L17.3136 7.67639ZM17.3136 7.67639L15.5794 7.44277C15.5383 7.74898 15.5789 8.06061 15.6973 8.34601C15.8156 8.6314 16.0074 8.88038 16.2531 9.06764L17.3136 7.67639ZM18.1449 7.75952C17.889 7.73812 17.634 7.70806 17.3801 7.66939C17.2095 7.63877 17.2419 7.62127 17.3136 7.67639L16.2531 9.06764C16.5226 9.27327 16.8324 9.34852 17.0704 9.39139C17.3163 9.43514 17.626 9.46577 17.9708 9.50077L18.1449 7.75952ZM19.1765 7.98527C19.0103 7.90214 18.8319 7.84602 18.648 7.81902C18.481 7.79379 18.3132 7.77395 18.1449 7.75952L17.9708 9.50077C18.1003 9.51215 18.2296 9.52674 18.3584 9.54452C18.4284 9.55677 18.4135 9.56114 18.3741 9.54102L19.1765 7.98527ZM20.0016 8.89789C19.8461 8.50384 19.553 8.17958 19.1765 7.98527L18.375 9.54277L20.0016 8.89789ZM20.1241 9.94614C20.1241 9.76764 20.1241 9.59002 20.1145 9.43952C20.1057 9.25379 20.0673 9.07066 20.0008 8.89702L18.375 9.54277C18.3593 9.50164 18.3645 9.48764 18.3698 9.55764C18.375 9.63639 18.375 9.74577 18.375 9.94789L20.1241 9.94614ZM20.1241 11.0521V9.94614H18.3741V11.0521H20.1241ZM20.0016 12.1004C20.0786 11.9053 20.104 11.718 20.1145 11.5579C20.1241 11.4083 20.1241 11.2306 20.1241 11.0521H18.3741C18.3741 11.2543 18.3741 11.3636 18.3689 11.4424C18.3636 11.5124 18.3584 11.4984 18.3741 11.4573L20.0016 12.1004ZM19.1765 13.013C19.553 12.8187 19.8461 12.4944 20.0016 12.1004L18.375 11.4581L19.1765 13.013ZM18.1449 13.2388C18.3234 13.2213 18.4993 13.2038 18.648 13.1793C18.8055 13.153 18.9893 13.1093 19.1765 13.013L18.375 11.4581C18.4135 11.438 18.4284 11.4424 18.3593 11.4538C18.2305 11.4722 18.1012 11.4871 17.9716 11.4984L18.1449 13.2388ZM17.3145 13.3219C17.2419 13.377 17.2095 13.3595 17.3801 13.3289C17.5429 13.3 17.7713 13.2764 18.1449 13.2388L17.9708 11.4975C17.6269 11.5325 17.3163 11.5623 17.0704 11.6069C16.8333 11.6498 16.5226 11.725 16.2531 11.9306L17.3145 13.3219ZM17.3145 13.3219L16.2531 11.9306C16.0074 12.1179 15.8156 12.3669 15.6973 12.6523C15.5789 12.9377 15.5383 13.2493 15.5794 13.5555L17.3145 13.3219ZM17.843 13.9676C17.6773 13.7718 17.5182 13.5705 17.3661 13.3639C17.2673 13.2213 17.3031 13.2318 17.3145 13.3219L15.5794 13.5555C15.6249 13.8915 15.7911 14.1645 15.9294 14.3623C16.072 14.5679 16.2698 14.8085 16.4885 15.0763L17.843 13.9676ZM18.4118 14.8566C18.3531 14.6808 18.2668 14.5154 18.1563 14.3666C18.0688 14.2433 17.9559 14.1068 17.843 13.9676L16.4885 15.0763C16.6163 15.2329 16.6854 15.3169 16.7309 15.3816C16.772 15.4385 16.7589 15.4315 16.7449 15.3904L18.4118 14.8566ZM18.3505 16.086C18.5191 15.6972 18.5409 15.2603 18.4118 14.8566L16.7449 15.3904L18.3505 16.086ZM17.696 16.9138C17.8229 16.7869 17.948 16.6626 18.0478 16.5489C18.1528 16.4281 18.2665 16.2785 18.3505 16.0851L16.7449 15.3895C16.7624 15.3493 16.7764 15.344 16.73 15.3965C16.6775 15.456 16.6014 15.533 16.4588 15.6765L17.696 16.9138ZM16.9138 17.6951L17.696 16.9138L16.4588 15.6765L15.6765 16.4579L16.9138 17.6951ZM16.086 18.3505C16.2558 18.2746 16.4123 18.1721 16.5498 18.0469C16.6626 17.948 16.7878 17.822 16.9138 17.6951L15.6765 16.4579C15.5857 16.5509 15.4924 16.6413 15.3965 16.7291C15.344 16.7764 15.3501 16.7624 15.3904 16.7449L16.086 18.3505ZM14.8575 18.4118C15.2609 18.5407 15.6974 18.5189 16.086 18.3505L15.3904 16.7449L14.8575 18.4118ZM13.9685 17.843C14.1068 17.9559 14.2433 18.0688 14.3666 18.1563C14.4961 18.2481 14.6571 18.3479 14.8575 18.4118L15.3904 16.7449C15.4315 16.758 15.4394 16.7711 15.3816 16.7309C15.2776 16.653 15.1758 16.5721 15.0763 16.4885L13.9685 17.843ZM13.3228 17.3145C13.2326 17.3014 13.2213 17.2664 13.3639 17.3653C13.4995 17.4598 13.6771 17.6041 13.9676 17.8421L15.0763 16.4885C14.8085 16.2689 14.5679 16.0711 14.3623 15.9285C14.1645 15.7903 13.8915 15.6249 13.5555 15.5794L13.3228 17.3145ZM13.3228 17.3145L13.5555 15.5794C13.2493 15.5383 12.9377 15.5789 12.6523 15.6973C12.3669 15.8156 12.1179 16.0074 11.9306 16.2531L13.3228 17.3145ZM13.2388 18.1449C13.2764 17.7713 13.3 17.542 13.3289 17.3801C13.3595 17.2095 13.377 17.241 13.3219 17.3136L11.9306 16.2523C11.725 16.5218 11.6498 16.8324 11.6069 17.0695C11.5631 17.3163 11.5334 17.626 11.4984 17.9708L13.2388 18.1449ZM13.0121 19.1765C13.1084 18.9893 13.1521 18.8055 13.1784 18.648C13.2046 18.4993 13.2204 18.3234 13.2388 18.1449L11.4984 17.9708C11.4868 18.1007 11.4717 18.2293 11.4529 18.3584C11.4415 18.4284 11.4371 18.4135 11.4573 18.3741L13.0121 19.1765ZM12.1013 20.0016C12.4947 19.8458 12.8183 19.5526 13.0121 19.1765L11.4581 18.375L12.1013 20.0016ZM11.0513 20.1241C11.2306 20.1241 11.4083 20.1241 11.5588 20.1145C11.718 20.104 11.9053 20.0804 12.1013 20.0016L11.4581 18.375C11.4993 18.3593 11.5133 18.3645 11.4433 18.3698C11.3133 18.3751 11.1831 18.3769 11.053 18.375L11.0513 20.1241ZM9.94614 20.1241H11.0513L11.0521 18.3741H9.94614V20.1241ZM8.89789 20.0016C9.09302 20.0786 9.28027 20.104 9.44039 20.1145C9.59002 20.1241 9.76764 20.1241 9.94614 20.1241V18.3741C9.74402 18.3741 9.63464 18.3741 9.55589 18.3689C9.48589 18.3636 9.49989 18.3584 9.54102 18.3741L8.89789 20.0016ZM7.98527 19.1765C8.17958 19.553 8.50384 19.8461 8.89789 20.0016L9.54102 18.3741L7.98527 19.1765ZM7.75952 18.1449C7.77702 18.3234 7.79452 18.4993 7.81902 18.648C7.84527 18.8055 7.88902 18.9893 7.98527 19.1765L9.54277 18.375C9.56289 18.4135 9.55852 18.4284 9.54714 18.3593C9.52867 18.2305 9.51379 18.1012 9.50252 17.9716L7.75952 18.1449ZM7.67639 17.3136C7.62127 17.2419 7.63877 17.2086 7.66939 17.3801C7.69827 17.542 7.72189 17.7713 7.75952 18.1449L9.50077 17.9708C9.46577 17.626 9.43602 17.3163 9.39139 17.0695C9.34852 16.8333 9.27327 16.5226 9.06764 16.2531L7.67639 17.3136ZM7.67639 17.3136L9.06764 16.2531C8.88038 16.0074 8.6314 15.8156 8.34601 15.6973C8.06061 15.5789 7.74898 15.5383 7.44277 15.5794L7.67639 17.3136ZM7.02977 17.843C7.32114 17.605 7.49877 17.4598 7.63439 17.3661C7.77702 17.2673 7.76652 17.3023 7.67639 17.3136L7.44277 15.5794C7.10677 15.6249 6.83377 15.7911 6.63602 15.9294C6.43039 16.0711 6.18977 16.2689 5.92202 16.4885L7.02977 17.843ZM6.14077 18.4118C6.31691 18.3532 6.4826 18.2669 6.63164 18.1563C6.75414 18.0688 6.89152 17.9559 7.02977 17.843L5.92289 16.4894C5.82308 16.573 5.72184 16.6538 5.61752 16.7318C5.56064 16.7729 5.56852 16.7598 5.60964 16.7458L6.14077 18.4118ZM4.91227 18.3505C5.30087 18.5189 5.73735 18.5407 6.14077 18.4118L5.60789 16.7449L4.91227 18.3505ZM4.08364 17.696C4.21052 17.8229 4.33564 17.948 4.44939 18.0478C4.56927 18.1528 4.71889 18.2674 4.91314 18.3514L5.60789 16.7449C5.64814 16.7624 5.65427 16.7764 5.60177 16.73C5.50593 16.6422 5.41256 16.5518 5.32177 16.4588L4.08364 17.696ZM3.30227 16.9138L4.08452 17.696L5.32177 16.4588L4.53952 15.6765L3.30227 16.9138ZM2.64777 16.086C2.73089 16.2785 2.84552 16.429 2.95052 16.5498C3.05027 16.6626 3.17539 16.7878 3.30227 16.9138L4.53952 15.6765C4.44652 15.5857 4.35607 15.4924 4.26827 15.3965C4.22189 15.344 4.23589 15.3501 4.25339 15.3904L2.64777 16.086ZM2.58652 14.8575C2.45761 15.2609 2.47937 15.6974 2.64777 16.086L4.25339 15.3904L2.58652 14.8575ZM3.15527 13.9685C3.04661 14.0978 2.94214 14.2306 2.84202 14.3666C2.73136 14.5157 2.64511 14.6814 2.58652 14.8575L4.25339 15.3904C4.23939 15.4315 4.22714 15.4394 4.26739 15.3816C4.31289 15.3178 4.38114 15.2329 4.50977 15.0763L3.15527 13.9685ZM3.68377 13.3219C3.69602 13.2318 3.73102 13.2213 3.63214 13.3639C3.53852 13.4995 3.39327 13.678 3.15527 13.9685L4.50977 15.0763C4.72852 14.8085 4.92714 14.5679 5.06977 14.3623C5.20714 14.1645 5.37339 13.8915 5.41889 13.5555L3.68377 13.3219ZM3.68377 13.3219L5.41889 13.5555C5.46002 13.2493 5.41935 12.9377 5.30101 12.6523C5.18267 12.3669 4.99088 12.1179 4.74514 11.9306L3.68377 13.3219ZM2.85252 13.2388C3.22702 13.2764 3.45627 13.3 3.61814 13.3289C3.78877 13.3595 3.75639 13.377 3.68377 13.3219L4.74514 11.9306C4.47564 11.725 4.16589 11.6498 3.92789 11.6069C3.68202 11.5631 3.37227 11.5325 3.02664 11.4975L2.85252 13.2388ZM1.82177 13.013C2.00902 13.1093 2.19277 13.153 2.35027 13.1793C2.49902 13.2038 2.67489 13.2221 2.85339 13.2396L3.02664 11.4975C2.89705 11.4865 2.76867 11.4719 2.63989 11.4538C2.56989 11.4415 2.58477 11.4371 2.62414 11.4573L1.82177 13.013ZM0.997518 12.1013C1.15303 12.4953 1.44621 12.8196 1.82264 13.0139L2.62502 11.4581L0.997518 12.1013ZM0.875018 11.053C0.875018 11.2315 0.875018 11.4091 0.884643 11.5596C0.895143 11.7189 0.919643 11.9061 0.998393 12.1021L2.62502 11.4573C2.64077 11.4984 2.63552 11.5124 2.63114 11.4424C2.62549 11.3127 2.62345 11.1828 2.62502 11.053H0.875018ZM0.875018 9.94702V11.053H2.62502V9.94702H0.875018ZM0.997518 8.89789C0.93132 9.07158 0.893218 9.25471 0.884643 9.44039C0.874143 9.59089 0.875018 9.76852 0.875018 9.94789H2.62502C2.62502 9.74489 2.62502 9.63552 2.63114 9.55677C2.63552 9.48677 2.64077 9.50077 2.62502 9.54189L0.997518 8.89789ZM1.82264 7.98702C1.44652 8.1809 1.15339 8.5045 0.997518 8.89789L2.62502 9.54189L1.82264 7.98702ZM2.85427 7.75952C2.67577 7.77789 2.49989 7.79452 2.35114 7.82077C2.19364 7.84702 2.00989 7.89077 1.82264 7.98702L2.62502 9.54189C2.58564 9.56202 2.57164 9.55764 2.64077 9.54627C2.76954 9.52779 2.8988 9.51291 3.02839 9.50164L2.85427 7.75952ZM3.68552 7.67727C3.75814 7.62214 3.79052 7.63964 3.61902 7.67027C3.45714 7.69914 3.22789 7.72277 2.85427 7.76039L3.02839 9.50164C3.37227 9.46664 3.68289 9.43689 3.92964 9.39227C4.16677 9.34939 4.47739 9.27414 4.74689 9.06852L3.68552 7.67727ZM3.68552 7.67727L4.74689 9.06852C4.99248 8.88116 5.18409 8.63213 5.30227 8.34675C5.42045 8.06136 5.46099 7.74977 5.41977 7.44364L3.68552 7.67727ZM3.15614 7.03064C3.39414 7.32114 3.53939 7.49964 3.63389 7.63527C3.73277 7.77789 3.69777 7.76739 3.68552 7.67727L5.41977 7.44364C5.37427 7.10764 5.20889 6.83552 5.07064 6.63689C4.92802 6.43127 4.72939 6.19064 4.51064 5.92289L3.15614 7.03064ZM2.58739 6.14077C2.65127 6.34202 2.75014 6.50214 2.84289 6.63252C2.93039 6.75502 3.04327 6.89239 3.15614 7.03064L4.51064 5.92289C4.42702 5.82308 4.3462 5.72184 4.26827 5.61752C4.22714 5.56064 4.24114 5.56764 4.25427 5.60877L2.58739 6.14077ZM2.64864 4.91314C2.48046 5.30148 2.4587 5.73761 2.58739 6.14077L4.25427 5.60877L2.64864 4.91314ZM3.30314 4.08452C3.17627 4.21139 3.05114 4.33564 2.95139 4.44939C2.8265 4.58693 2.7243 4.74347 2.64864 4.91314L4.25427 5.60877C4.23677 5.64902 4.22277 5.65514 4.26914 5.60177C4.32164 5.54227 4.39777 5.46527 4.54039 5.32177L3.30314 4.08452ZM4.08539 3.30314L3.30314 4.08452L4.54039 5.32177L5.32352 4.54039L4.08539 3.30314ZM4.91314 2.64777C4.74341 2.7237 4.58686 2.82619 4.44939 2.95139C4.32432 3.06471 4.20293 3.18202 4.08539 3.30314L5.32352 4.54039C5.46614 4.39689 5.54314 4.32077 5.60264 4.26914C5.65514 4.22189 5.64902 4.23589 5.60877 4.25339L4.91314 2.64777ZM6.14164 2.58652C5.73822 2.45761 5.30174 2.47937 4.91314 2.64777L5.60877 4.25339L6.14164 2.58652ZM7.02977 3.15527C6.89152 3.04239 6.75589 2.93039 6.63252 2.84289C6.48354 2.73192 6.31784 2.64538 6.14164 2.58652L5.60877 4.25339C5.56764 4.24027 5.55977 4.22714 5.61752 4.26739C5.68139 4.31377 5.76627 4.38202 5.92289 4.51064L7.02977 3.15527ZM7.67727 3.68464C7.76739 3.69689 7.77789 3.73189 7.63527 3.63302C7.4287 3.48091 7.22733 3.32186 7.03152 3.15614L5.92289 4.51064C6.19064 4.72939 6.43039 4.92714 6.63602 5.07064C6.83377 5.20802 7.10677 5.37339 7.44277 5.41889L7.67727 3.68464ZM7.67727 3.68464L7.44364 5.41889C7.74985 5.46002 8.06149 5.41935 8.34688 5.30101C8.63228 5.18267 8.88126 4.99088 9.06852 4.74514L7.67727 3.68464ZM7.76039 2.85339C7.72277 3.22789 7.69914 3.45714 7.67027 3.61902C7.63964 3.78964 7.62214 3.75727 7.67727 3.68464L9.06852 4.74514C9.27414 4.47564 9.34939 4.16589 9.39227 3.92877C9.43602 3.68289 9.46752 3.37227 9.50164 3.02752L7.76039 2.85339ZM7.98614 1.82264C7.90301 1.98886 7.8469 2.16727 7.81989 2.35114C7.79539 2.49989 7.77789 2.67577 7.76039 2.85427L9.50164 3.02752C9.51302 2.89797 9.52761 2.7696 9.54539 2.64077C9.55764 2.57077 9.56202 2.58652 9.54189 2.62502L7.98614 1.82264ZM8.89877 0.997518C8.50472 1.15303 8.18045 1.44621 7.98614 1.82264L9.54189 2.62502L8.89877 0.997518ZM9.94702 0.875018C9.76852 0.875018 9.59089 0.875018 9.44039 0.884643C9.25471 0.893218 9.07158 0.93132 8.89789 0.997518L9.54277 2.62502C9.50164 2.64077 9.48764 2.63552 9.55764 2.63114C9.63639 2.62589 9.74577 2.62502 9.94789 2.62502L9.94702 0.875018ZM11.053 0.875018H9.94702V2.62502H11.053V0.875018ZM12.1013 0.997518C11.9276 0.93132 11.7444 0.893218 11.5588 0.884643C11.41 0.874143 11.2324 0.875018 11.0539 0.875018V2.62502C11.256 2.62502 11.3654 2.62502 11.4441 2.63114C11.5141 2.63552 11.4993 2.64077 11.4581 2.62502L12.1013 0.997518ZM13.0139 1.82264C12.8196 1.44621 12.4953 1.15303 12.1013 0.997518L11.4581 2.62502L13.0139 1.82264ZM13.125 10.5C13.125 11.1962 12.8485 11.8639 12.3562 12.3562C11.8639 12.8485 11.1962 13.125 10.5 13.125V14.875C11.6603 14.875 12.7731 14.4141 13.5936 13.5936C14.4141 12.7731 14.875 11.6603 14.875 10.5H13.125ZM10.5 7.87502C11.1962 7.87502 11.8639 8.15158 12.3562 8.64386C12.8485 9.13614 13.125 9.80382 13.125 10.5H14.875C14.875 9.33969 14.4141 8.2269 13.5936 7.40643C12.7731 6.58595 11.6603 6.12502 10.5 6.12502V7.87502ZM7.87502 10.5C7.87502 9.80382 8.15158 9.13614 8.64386 8.64386C9.13614 8.15158 9.80382 7.87502 10.5 7.87502V6.12502C9.33969 6.12502 8.2269 6.58595 7.40643 7.40643C6.58595 8.2269 6.12502 9.33969 6.12502 10.5H7.87502ZM10.5 13.125C9.80382 13.125 9.13614 12.8485 8.64386 12.3562C8.15158 11.8639 7.87502 11.1962 7.87502 10.5H6.12502C6.12502 11.6603 6.58595 12.7731 7.40643 13.5936C8.2269 14.4141 9.33969 14.875 10.5 14.875V13.125Z" fill="white"/>
</svg>
