<svg width="22" height="27" viewBox="0 0 22 27" fill="none" xmlns="http://www.w3.org/2000/svg">
<path d="M20.7456 14.6446C20.7456 20.7463 16.4745 23.7972 11.3978 25.5666C11.132 25.6567 10.8432 25.6524 10.5802 25.5544C5.4914 23.7972 1.22021 20.7463 1.22021 14.6446V6.10224C1.22021 5.77859 1.34879 5.46819 1.57764 5.23933C1.8065 5.01047 2.1169 4.8819 2.44055 4.8819C4.88123 4.8819 7.93208 3.4175 10.0555 1.56258C10.314 1.3417 10.6429 1.22034 10.9829 1.22034C11.323 1.22034 11.6518 1.3417 11.9104 1.56258C14.046 3.4297 17.0846 4.8819 19.5253 4.8819C19.849 4.8819 20.1594 5.01047 20.3882 5.23933C20.6171 5.46819 20.7456 5.77859 20.7456 6.10224V14.6446Z" stroke="#126E34" stroke-width="2.44068" stroke-linecap="round" stroke-linejoin="round"/>
</svg>
