<svg width="18" height="22" viewBox="0 0 18 22" fill="none" xmlns="http://www.w3.org/2000/svg">
<path d="M17 11.9986C17 16.9978 13.5 19.4974 9.34 20.9471C9.12216 21.0209 8.88554 21.0174 8.67 20.9371C4.5 19.4974 1 16.9978 1 11.9986V4.99978C1 4.73461 1.10536 4.4803 1.29289 4.29279C1.48043 4.10529 1.73478 3.99995 2 3.99995C4 3.99995 6.5 2.80015 8.24 1.2804C8.45185 1.09943 8.72135 1 9 1C9.27865 1 9.54815 1.09943 9.76 1.2804C11.51 2.81015 14 3.99995 16 3.99995C16.2652 3.99995 16.5196 4.10529 16.7071 4.29279C16.8946 4.4803 17 4.73461 17 4.99978V11.9986Z" stroke="white" stroke-width="2" stroke-linecap="round" stroke-linejoin="round"/>
</svg>
