<svg width="25" height="25" viewBox="0 0 25 25" fill="none" xmlns="http://www.w3.org/2000/svg">
<path d="M12.4912 0.754883C18.9732 0.754883 24.2283 6.00924 24.2285 12.4912C24.2285 18.9733 18.9733 24.2285 12.4912 24.2285C6.00924 24.2283 0.754883 18.9732 0.754883 12.4912C0.755053 6.00935 6.00935 0.755053 12.4912 0.754883Z" stroke="#6123C5" stroke-width="1.50924"/>
<path d="M12.4912 7.00073C15.5237 7.00091 17.9824 9.45938 17.9824 12.4919C17.9822 15.5244 15.5236 17.983 12.4912 17.9832C9.45865 17.9832 7.00018 15.5245 7 12.4919C7 9.45927 9.45854 7.00073 12.4912 7.00073Z" stroke="#6123C5" stroke-width="1.50924"/>
<path d="M10.9297 12.4916C10.9297 11.6293 11.6288 10.9302 12.4911 10.9302C13.3535 10.9302 14.0526 11.6293 14.0526 12.4916C14.0526 13.354 13.3535 14.0531 12.4911 14.0531C11.6288 14.0531 10.9297 13.354 10.9297 12.4916Z" fill="#6123C5"/>
</svg>
