<svg width="28" height="28" viewBox="0 0 28 28" fill="none" xmlns="http://www.w3.org/2000/svg">
<path d="M10.7923 3.5C10.7923 3.26794 10.8845 3.04538 11.0486 2.88128C11.2127 2.71719 11.4353 2.625 11.6673 2.625H16.334C16.566 2.625 16.7886 2.71719 16.9527 2.88128C17.1168 3.04538 17.209 3.26794 17.209 3.5V4.375H22.1673C22.3994 4.375 22.6219 4.46719 22.786 4.63128C22.9501 4.79538 23.0423 5.01794 23.0423 5.25C23.0423 5.48206 22.9501 5.70462 22.786 5.86872C22.6219 6.03281 22.3994 6.125 22.1673 6.125H5.83398C5.60192 6.125 5.37936 6.03281 5.21527 5.86872C5.05117 5.70462 4.95898 5.48206 4.95898 5.25C4.95898 5.01794 5.05117 4.79538 5.21527 4.63128C5.37936 4.46719 5.60192 4.375 5.83398 4.375H10.7923V3.5Z" fill="white"/>
<path fill-rule="evenodd" clip-rule="evenodd" d="M7.28087 9.26917C7.29667 9.12643 7.36456 8.99454 7.47155 8.89875C7.57854 8.80295 7.7171 8.74999 7.86071 8.75H20.141C20.2846 8.74999 20.4232 8.80295 20.5302 8.89875C20.6372 8.99454 20.7051 9.12643 20.7209 9.26917L20.9542 11.3703C21.3755 15.1585 21.3755 18.9817 20.9542 22.7698L20.9309 22.9763C20.8569 23.6471 20.5613 24.274 20.0909 24.7579C19.6206 25.2418 19.0023 25.555 18.3339 25.648C15.4592 26.0503 12.5425 26.0503 9.66787 25.648C8.99928 25.5552 8.38072 25.2421 7.91012 24.7582C7.43953 24.2743 7.14378 23.6473 7.06971 22.9763L7.04637 22.7698C6.62517 18.9821 6.62517 15.1593 7.04637 11.3715L7.28087 9.26917ZM12.5425 13.3C12.5425 13.0679 12.4504 12.8454 12.2863 12.6813C12.1222 12.5172 11.8996 12.425 11.6675 12.425C11.4355 12.425 11.2129 12.5172 11.0488 12.6813C10.8847 12.8454 10.7925 13.0679 10.7925 13.3V21.4667C10.7925 21.6987 10.8847 21.9213 11.0488 22.0854C11.2129 22.2495 11.4355 22.3417 11.6675 22.3417C11.8996 22.3417 12.1222 22.2495 12.2863 22.0854C12.4504 21.9213 12.5425 21.6987 12.5425 21.4667V13.3ZM17.2092 13.3C17.2092 13.0679 17.117 12.8454 16.9529 12.6813C16.7888 12.5172 16.5663 12.425 16.3342 12.425C16.1021 12.425 15.8796 12.5172 15.7155 12.6813C15.5514 12.8454 15.4592 13.0679 15.4592 13.3V21.4667C15.4592 21.6987 15.5514 21.9213 15.7155 22.0854C15.8796 22.2495 16.1021 22.3417 16.3342 22.3417C16.5663 22.3417 16.7888 22.2495 16.9529 22.0854C17.117 21.9213 17.2092 21.6987 17.2092 21.4667V13.3Z" fill="white"/>
</svg>
